<?xml version="1.0" encoding="UTF-8"?>
<svg version="1.1" xmlns="http://www.w3.org/2000/svg" width="176" height="189">
<path d="M0 0 C1.38671951 1.62251797 2.71394624 3.2965854 4 5 C5.6604037 6.35272506 7.3726279 7.64374147 9.125 8.875 C10.09566406 9.56335937 11.06632812 10.25171875 12.06640625 10.9609375 C13.90582466 12.239468 15.74674137 13.51584849 17.58984375 14.7890625 C22.72488731 18.3422206 27.65338347 22.04417518 32.48046875 26.0078125 C35.03837001 28.18475103 35.03837001 28.18475103 38.61474609 29.70532227 C41.31921805 31.65243432 41.92799029 32.65362689 42.61585999 35.96234131 C42.81239877 39.88842112 42.78725942 43.78055117 42.68359375 47.70703125 C42.67052875 49.15717679 42.66056883 50.60735334 42.65357971 52.05754089 C42.62692309 55.86418814 42.55822761 59.66894887 42.48065186 63.47485352 C42.39625791 68.04668947 42.3642789 72.61915833 42.3234787 77.19155121 C42.2557229 84.12901056 42.12157798 91.06233567 42 98 C27.48 98 12.96 98 -2 98 C-2 101.96 -2 105.92 -2 110 C-5.465 110.99 -5.465 110.99 -9 112 C-8.401875 112.0825 -7.80375 112.165 -7.1875 112.25 C-4.38926857 113.20939363 -3.69589407 114.64049521 -2 117 C-1.01 117.33 -0.02 117.66 1 118 C2.22691067 120.45382134 2.20175931 122.19984103 2.25 124.9375 C2.27578125 125.81277344 2.3015625 126.68804687 2.328125 127.58984375 C1.92543268 130.54771471 1.20333871 131.06471495 -1 133 C-2.29065357 133.92134157 -3.60678346 134.80765202 -4.94140625 135.6640625 C-5.68970703 136.14617187 -6.43800781 136.62828125 -7.20898438 137.125 C-8.37397461 137.8675 -8.37397461 137.8675 -9.5625 138.625 C-10.34302734 139.12773437 -11.12355469 139.63046875 -11.92773438 140.1484375 C-17.67291983 143.83645992 -17.67291983 143.83645992 -20 145 C-20.042721 146.66611905 -20.04063832 148.33382885 -20 150 C-19.67 150.33 -19.34 150.66 -19 151 C-18.92674832 153.86267567 -18.90761795 156.700719 -18.9375 159.5625 C-18.94201172 160.36880859 -18.94652344 161.17511719 -18.95117188 162.00585938 C-18.96299482 164.00393756 -18.98093086 166.00197783 -19 168 C-21.31 168 -23.62 168 -26 168 C-28.65454436 162.69091128 -26.63583455 152.14615093 -25.0625 146.5 C-23.17578782 142.14823674 -19.27218529 139.98450894 -15.375 137.54296875 C-13.2634575 136.17116071 -11.74948409 134.78008731 -10 133 C-8.33927151 132.31867549 -6.672233 131.65257873 -5 131 C-2.63517472 129.8727078 -2.63517472 129.8727078 -1 128 C-0.66602213 124.87413125 -0.66602213 124.87413125 -1 122 C-1.99 121.505 -1.99 121.505 -3 121 C-3.495 122.98 -3.495 122.98 -4 125 C-4.66 125 -5.32 125 -6 125 C-6 125.66 -6 126.32 -6 127 C-19.2 127 -32.4 127 -46 127 C-47.32229189 124.35541621 -47.09677194 122.32238699 -47.0625 119.375 C-47.05347656 118.37210937 -47.04445312 117.36921875 -47.03515625 116.3359375 C-47.02355469 115.56507813 -47.01195312 114.79421875 -47 114 C-44.1004339 112.34123921 -42.08364791 111.7638784 -38.75 111.875 C-37.5125 111.91625 -36.275 111.9575 -35 112 C-39.33273814 111.07155611 -42.66726186 111.07155611 -47 112 C-47.98170935 107.91076822 -48.11751395 104.10200406 -48.10107422 99.90234375 C-48.09949814 99.207388 -48.09792206 98.51243225 -48.09629822 97.79641724 C-48.08883873 95.51002772 -48.07283467 93.22382855 -48.0546875 90.9375 C-48.04897861 90.15398163 -48.04326973 89.37046326 -48.03738785 88.5632019 C-48.00592151 84.42063014 -47.96702447 80.27819684 -47.92285156 76.13574219 C-47.87900461 71.86193646 -47.86326638 67.58849856 -47.85362053 63.3144989 C-47.84075077 60.02169198 -47.80605075 56.72936974 -47.76550674 53.4367981 C-47.75003231 51.86123584 -47.74292196 50.28556797 -47.74441147 48.70993042 C-47.74459113 46.50489003 -47.71364699 44.30231738 -47.67529297 42.09765625 C-47.66561493 40.84476807 -47.65593689 39.59187988 -47.64596558 38.30102539 C-46.8289336 34.1258133 -45.20706255 32.69919053 -42 30 C-41.28457031 29.33355469 -40.56914063 28.66710937 -39.83203125 27.98046875 C-39.16558594 27.38878906 -38.49914062 26.79710938 -37.8125 26.1875 C-37.13832031 25.58292969 -36.46414062 24.97835937 -35.76953125 24.35546875 C-34 23 -34 23 -32 23 C-30.30591008 21.36121542 -28.64413918 19.68889369 -27 18 C-6.5040783 0 -6.5040783 0 0 0 Z M11 43 C11 44.65 11 46.3 11 48 C14.04913228 49.01111093 14.04913228 49.01111093 17 48 C17 46.35 17 44.7 17 43 C15.02 43 13.04 43 11 43 Z M20 43 C20 44.65 20 46.3 20 48 C22.94729537 49.15811388 22.94729537 49.15811388 26 49 C26 47.02 26 45.04 26 43 C24.02 43 22.04 43 20 43 Z M11 53 C11 54.98 11 56.96 11 59 C12.98 58.67 14.96 58.34 17 58 C17 56.35 17 54.7 17 53 C15.02 53 13.04 53 11 53 Z M20 53 C20 54.65 20 56.3 20 58 C21.65614657 58.38218767 23.32457024 58.71395102 25 59 C26.29633621 57.93354885 26.29633621 57.93354885 26.0625 55.4375 C26.041875 54.633125 26.02125 53.82875 26 53 C24.02 53 22.04 53 20 53 Z M-19 110 C-19.33 110.66 -19.66 111.32 -20 112 C-19.01 111.67 -18.02 111.34 -17 111 C-17.66 110.67 -18.32 110.34 -19 110 Z M-29 111 C-29 111.66 -29 112.32 -29 113 C-26.03 113 -23.06 113 -20 113 C-21.95633975 110.58878141 -21.95633975 110.58878141 -25.625 110.875 C-27.295625 110.936875 -27.295625 110.936875 -29 111 Z " fill="#E94887" transform="translate(81,16)"/>
<path d="M0 0 C0.97582031 0.85078125 1.95164062 1.7015625 2.95703125 2.578125 C7.08886066 6.11820738 11.36445262 9.44793571 15.6875 12.75 C16.43322266 13.32621094 17.17894531 13.90242188 17.94726562 14.49609375 C18.66978516 15.04910156 19.39230469 15.60210937 20.13671875 16.171875 C20.78342529 16.6678418 21.43013184 17.16380859 22.09643555 17.67480469 C23.9499752 19.04606393 23.9499752 19.04606393 25.99145508 19.92675781 C28 21 28 21 29.77035522 22.86004639 C32.2221339 25.2131982 34.75075387 26.60842515 37.68286133 28.3125 C41.1235268 30.79844044 42.73656395 32.1226276 43.96762085 36.22265625 C44.27197882 40.17636971 44.24015316 44.04571276 44.07421875 48 C44.05366991 49.44582161 44.03802712 50.89172049 44.02705383 52.33764648 C43.98529683 56.12091217 43.87749757 59.89943884 43.75531006 63.68084717 C43.62230752 68.22962992 43.57237168 72.78000929 43.50832367 77.33018494 C43.40208453 84.22340638 43.19127813 91.10625874 43 98 C28.81 98 14.62 98 0 98 C-0.74103967 88.36648426 -1.29952916 78.83021347 -1.5625 69.1875 C-1.58367889 68.44495972 -1.60485779 67.70241943 -1.62667847 66.93737793 C-2.23711643 44.96392245 -2.09095169 22.97952489 -2 1 C-1.34 0.67 -0.68 0.34 0 0 Z M12 43 C12 44.65 12 46.3 12 48 C15.04913228 49.01111093 15.04913228 49.01111093 18 48 C18 46.35 18 44.7 18 43 C16.02 43 14.04 43 12 43 Z M21 43 C21 44.65 21 46.3 21 48 C23.94729537 49.15811388 23.94729537 49.15811388 27 49 C27 47.02 27 45.04 27 43 C25.02 43 23.04 43 21 43 Z M12 53 C12 54.98 12 56.96 12 59 C13.98 58.67 15.96 58.34 18 58 C18 56.35 18 54.7 18 53 C16.02 53 14.04 53 12 53 Z M21 53 C21 54.65 21 56.3 21 58 C22.65614657 58.38218767 24.32457024 58.71395102 26 59 C27.29633621 57.93354885 27.29633621 57.93354885 27.0625 55.4375 C27.041875 54.633125 27.02125 53.82875 27 53 C25.02 53 23.04 53 21 53 Z " fill="#2B2A62" transform="translate(80,16)"/>
<path d="M0 0 C1.32 0 2.64 0 4 0 C4 34.65 4 69.3 4 105 C-0.29 105 -4.58 105 -9 105 C-9.71613373 81.97896718 -10.14092398 58.9566256 -10.23217773 35.92428589 C-10.24406727 33.34802373 -10.26116421 30.77178038 -10.28344727 28.19558716 C-10.31320798 24.55865827 -10.32334194 20.92219273 -10.328125 17.28515625 C-10.34043152 16.18699585 -10.35273804 15.08883545 -10.36541748 13.95739746 C-10.36245667 12.95059937 -10.35949585 11.94380127 -10.35644531 10.90649414 C-10.36009094 10.0272377 -10.36373657 9.14798126 -10.36749268 8.24208069 C-9.91882235 5.50473342 -9.2338097 4.60898108 -7 3 C-3.875 2.8125 -3.875 2.8125 -1 3 C-0.67 3 -0.34 3 0 3 C0 2.01 0 1.02 0 0 Z " fill="#F37F2D" transform="translate(73,21)"/>
<path d="M0 0 C0.36306689 32.70674118 -0.69056996 65.32171076 -2 98 C-5.63 98 -9.26 98 -13 98 C-13.13215496 89.72283947 -13.26264531 81.44565491 -13.39115143 73.168437 C-13.45090518 69.32280911 -13.51118044 65.47719102 -13.57275391 61.6315918 C-13.71073261 52.9947484 -13.83893587 44.35787324 -13.95019531 35.72064209 C-13.98135979 33.39251066 -14.01539743 31.06441391 -14.05371094 28.73638916 C-14.09748606 26.04952381 -14.12921599 23.36285775 -14.15625 20.67578125 C-14.17854675 19.57607246 -14.17854675 19.57607246 -14.20129395 18.45414734 C-14.22397543 14.51989422 -13.83933939 11.50139306 -12 8 C-9.6875 5.76171875 -9.6875 5.76171875 -7 3.6875 C-6.113125 2.99011719 -5.22625 2.29273438 -4.3125 1.57421875 C-2 0 -2 0 0 0 Z " fill="#45A7F0" transform="translate(63,28)"/>
<path d="M0 0 C1.24601234 0.02330887 1.24601234 0.02330887 2.51719666 0.04708862 C4.26980777 0.08383617 6.02230873 0.12621081 7.7746582 0.17382812 C10.45855132 0.24202761 13.14165939 0.27808002 15.82617188 0.3125 C17.52999481 0.35220271 19.23377477 0.39380493 20.9375 0.4375 C21.74067154 0.44500275 22.54384308 0.45250549 23.37135315 0.4602356 C25.63696289 0.53955078 25.63696289 0.53955078 29.40234375 1.1171875 C31.24389648 3.09716797 31.24389648 3.09716797 32.40234375 5.1171875 C33.39234375 5.4471875 34.38234375 5.7771875 35.40234375 6.1171875 C36.62925442 8.57100884 36.60410306 10.31702853 36.65234375 13.0546875 C36.678125 13.92996094 36.70390625 14.80523437 36.73046875 15.70703125 C36.32777643 18.66490221 35.60568246 19.18190245 33.40234375 21.1171875 C32.11169018 22.03852907 30.79556029 22.92483952 29.4609375 23.78125 C28.71263672 24.26335937 27.96433594 24.74546875 27.19335938 25.2421875 C26.02836914 25.9846875 26.02836914 25.9846875 24.83984375 26.7421875 C24.05931641 27.24492187 23.27878906 27.74765625 22.47460938 28.265625 C16.72942392 31.95364742 16.72942392 31.95364742 14.40234375 33.1171875 C14.35962275 34.78330655 14.36170543 36.45101635 14.40234375 38.1171875 C14.89734375 38.6121875 14.89734375 38.6121875 15.40234375 39.1171875 C15.47559543 41.97986317 15.4947258 44.8179065 15.46484375 47.6796875 C15.46033203 48.48599609 15.45582031 49.29230469 15.45117188 50.12304688 C15.43934893 52.12112506 15.42141289 54.11916533 15.40234375 56.1171875 C13.09234375 56.1171875 10.78234375 56.1171875 8.40234375 56.1171875 C5.74779939 50.80809878 7.7665092 40.26333843 9.33984375 34.6171875 C11.22655593 30.26542424 15.13015846 28.10169644 19.02734375 25.66015625 C21.13888625 24.28834821 22.65285966 22.89727481 24.40234375 21.1171875 C26.06307224 20.43586299 27.73011075 19.76976623 29.40234375 19.1171875 C31.76716903 17.9898953 31.76716903 17.9898953 33.40234375 16.1171875 C33.73632162 12.99131875 33.73632162 12.99131875 33.40234375 10.1171875 C32.74234375 9.7871875 32.08234375 9.4571875 31.40234375 9.1171875 C31.07234375 10.4371875 30.74234375 11.7571875 30.40234375 13.1171875 C29.74234375 13.1171875 29.08234375 13.1171875 28.40234375 13.1171875 C28.40234375 13.7771875 28.40234375 14.4371875 28.40234375 15.1171875 C15.20234375 15.1171875 2.00234375 15.1171875 -11.59765625 15.1171875 C-12.91994814 12.47260371 -12.69442819 10.43957449 -12.66015625 7.4921875 C-12.65113281 6.48929688 -12.64210937 5.48640625 -12.6328125 4.453125 C-12.62121094 3.68226563 -12.60960937 2.91140625 -12.59765625 2.1171875 C-8.68730363 -0.53670897 -4.52657085 -0.11101412 0 0 Z " fill="#25255E" transform="translate(46.59765625,127.8828125)"/>
<path d="M0 0 C2.38833147 0.14860808 4.77990874 0.24778427 7.171875 0.31640625 C7.8542926 0.33718735 8.53671021 0.35796844 9.23980713 0.37937927 C11.40977356 0.44452052 13.57985624 0.50359404 15.75 0.5625 C17.22527221 0.60571897 18.70053287 0.64933432 20.17578125 0.69335938 C23.78373166 0.80016518 27.39181133 0.90153153 31 1 C31 1.66 31 2.32 31 3 C19.12 3.33 7.24 3.66 -5 4 C-5 6.64 -5 9.28 -5 12 C13.315 12.495 13.315 12.495 32 13 C32 12.01 32 11.02 32 10 C33.33333333 8.66666667 34.66666667 7.33333333 36 6 C36 5.01 36 4.02 36 3 C39.875 4.75 39.875 4.75 41 7 C41.14640501 8.64142541 41.22096589 10.2898141 41.25 11.9375 C41.27578125 12.81277344 41.3015625 13.68804687 41.328125 14.58984375 C40.92543268 17.54771471 40.20333871 18.06471495 38 20 C36.70934643 20.92134157 35.39321654 21.80765202 34.05859375 22.6640625 C33.31029297 23.14617187 32.56199219 23.62828125 31.79101562 24.125 C30.62602539 24.8675 30.62602539 24.8675 29.4375 25.625 C28.65697266 26.12773437 27.87644531 26.63046875 27.07226562 27.1484375 C21.32708017 30.83645992 21.32708017 30.83645992 19 32 C18.957279 33.66611905 18.95936168 35.33382885 19 37 C19.495 37.495 19.495 37.495 20 38 C20.07325168 40.86267567 20.09238205 43.700719 20.0625 46.5625 C20.05798828 47.36880859 20.05347656 48.17511719 20.04882812 49.00585938 C20.03700518 51.00393756 20.01906914 53.00197783 20 55 C17.69 55 15.38 55 13 55 C10.34545564 49.69091128 12.36416545 39.14615093 13.9375 33.5 C15.82421218 29.14823674 19.72781471 26.98450894 23.625 24.54296875 C25.7365425 23.17116071 27.25051591 21.78008731 29 20 C30.66072849 19.31867549 32.327767 18.65257873 34 18 C36.36482528 16.8727078 36.36482528 16.8727078 38 15 C38.33397787 11.87413125 38.33397787 11.87413125 38 9 C37.34 8.67 36.68 8.34 36 8 C35.67 9.32 35.34 10.64 35 12 C34.34 12 33.68 12 33 12 C33 12.66 33 13.32 33 14 C19.8 14 6.6 14 -7 14 C-8.32229189 11.35541621 -8.09677194 9.32238699 -8.0625 6.375 C-8.05347656 5.37210938 -8.04445312 4.36921875 -8.03515625 3.3359375 C-8.02355469 2.56507813 -8.01195312 1.79421875 -8 1 C-4.74105285 -0.97864648 -3.58719765 -0.89907652 0 0 Z " fill="#5B5C76" transform="translate(42,129)"/>
<path d="M0 0 C0.66 0.33 1.32 0.66 2 1 C2.639375 0.835 3.27875 0.67 3.9375 0.5 C6 0 6 0 9 1 C9 15.85 9 30.7 9 46 C5.7 46 2.4 46 -1 46 C-0.67 30.82 -0.34 15.64 0 0 Z " fill="#42A7EE" transform="translate(52,80)"/>
<path d="M0 0 C0.66 0.33 1.32 0.66 2 1 C1.99476318 2.1974585 1.98952637 3.39491699 1.98413086 4.62866211 C1.96123949 10.3982624 1.94761891 16.16786412 1.9375 21.9375 C1.93555634 22.99900269 1.93361267 24.06050537 1.93161011 25.1541748 C1.90766478 44.09545832 2.21158445 63.01901052 2.73217773 81.95288086 C2.97659474 91.37621327 3.19100305 100.62597389 2 110 C-1.465 110.99 -1.465 110.99 -5 112 C-5 112.33 -5 112.66 -5 113 C-12.03482474 113.23668569 -18.1834265 112.7879537 -25 111 C-25.495 111.99 -25.495 111.99 -26 113 C-29.3 112.34 -32.6 111.68 -36 111 C-36 110.67 -36 110.34 -36 110 C-29.4 110 -22.8 110 -16 110 C-16.0309375 105.6378125 -16.0309375 105.6378125 -16.0625 101.1875 C-16.11469054 85.11917927 -15.51473336 69.058038 -15 53 C-14.67 53 -14.34 53 -14 53 C-12.93684013 65.32282592 -12.88160618 77.57653006 -12.9375 89.9375 C-12.94252924 91.89257697 -12.94708961 93.8476552 -12.95117188 95.80273438 C-12.96205496 100.53518818 -12.97923957 105.26757964 -13 110 C-8.71 110 -4.42 110 0 110 C0 75.35 0 40.7 0 5 C-1.32 5 -2.64 5 -4 5 C-3.505 6.98 -3.505 6.98 -3 9 C-6 9 -6 9 -9 7 C-6.03 4.69 -3.06 2.38 0 0 Z M-15 110 C-15.33 110.66 -15.66 111.32 -16 112 C-15.01 111.67 -14.02 111.34 -13 111 C-13.66 110.67 -14.32 110.34 -15 110 Z " fill="#DDA887" transform="translate(77,16)"/>
<path d="M0 0 C0.66 0.33 1.32 0.66 2 1 C1.84116333 1.58060684 1.68232666 2.16121368 1.51867676 2.75941467 C0.69111293 6.33433363 0.63516008 9.9672751 0.46875 13.62109375 C0.42721802 14.49261581 0.38568604 15.36413788 0.34289551 16.2620697 C-0.22441369 29.00344659 -0.3590032 41.75868806 -0.55224609 54.51000977 C-0.60378518 57.83097091 -0.66097314 61.15179869 -0.71875 64.47265625 C-0.73232544 65.48812027 -0.74590088 66.50358429 -0.7598877 67.54981995 C-0.77660522 68.48607712 -0.79332275 69.42233429 -0.81054688 70.38696289 C-0.82307495 71.20822159 -0.83560303 72.02948029 -0.84851074 72.87562561 C-1 75 -1 75 -2 78 C-0.68 78.33 0.64 78.66 2 79 C1.98952637 78.31373535 1.97905273 77.6274707 1.96826172 76.92041016 C1.92678126 73.82197711 1.90069931 70.72360239 1.875 67.625 C1.85824219 66.54476562 1.84148438 65.46453125 1.82421875 64.3515625 C1.81777344 63.3203125 1.81132813 62.2890625 1.8046875 61.2265625 C1.79421387 60.27346191 1.78374023 59.32036133 1.77294922 58.33837891 C2 56 2 56 4 54 C4 62.25 4 70.5 4 79 C0.535 79.99 0.535 79.99 -3 81 C-3.9885758 76.90062414 -4.10600349 73.09708159 -4.06933594 68.88647461 C-4.06454727 68.18991257 -4.05975861 67.49335052 -4.05482483 66.77568054 C-4.03721107 64.48447269 -4.01144944 62.1934582 -3.984375 59.90234375 C-3.96767192 58.30481508 -3.95100993 56.70728598 -3.93438721 55.10975647 C-3.89797955 51.76671329 -3.85676198 48.42376487 -3.81298828 45.08081055 C-3.75790753 40.79805299 -3.72142142 36.51535064 -3.68935776 32.23236752 C-3.66149788 28.9354025 -3.62044589 25.63869669 -3.57575226 22.34192085 C-3.55656793 20.76273277 -3.54226631 19.1834775 -3.53295135 17.60420036 C-3.51861966 15.39707686 -3.48571449 13.19096618 -3.44824219 10.98413086 C-3.43412292 9.72902206 -3.42000366 8.47391327 -3.40545654 7.18077087 C-2.97759457 3.82423137 -2.28839487 2.43065452 0 0 Z " fill="#DB739C" transform="translate(37,47)"/>
<path d="M0 0 C0.33 0 0.66 0 1 0 C2.06315987 12.32282592 2.11839382 24.57653006 2.0625 36.9375 C2.05747076 38.89257697 2.05291039 40.8476552 2.04882812 42.80273438 C2.03794504 47.53518818 2.02076043 52.26757964 2 57 C6.62 57 11.24 57 16 57 C7.21357347 61.39321327 -0.59843601 60.465984 -10 58 C-10.33 58.66 -10.66 59.32 -11 60 C-14.3 59.34 -17.6 58.68 -21 58 C-21 57.67 -21 57.34 -21 57 C-14.4 57 -7.8 57 -1 57 C-1.0309375 52.6378125 -1.0309375 52.6378125 -1.0625 48.1875 C-1.11469054 32.11917927 -0.51473336 16.058038 0 0 Z M0 57 C-0.33 57.66 -0.66 58.32 -1 59 C-0.01 58.67 0.98 58.34 2 58 C1.34 57.67 0.68 57.34 0 57 Z " fill="#E6EAE7" transform="translate(62,69)"/>
<path d="M0 0 C0.66 0.33 1.32 0.66 2 1 C1.34 1.66 0.68 2.32 0 3 C0.33 3.66 0.66 4.32 1 5 C0.34 5 -0.32 5 -1 5 C-1 37.01 -1 69.02 -1 102 C-1.33 102 -1.66 102 -2 102 C-2.71613373 78.97896718 -3.14092398 55.9566256 -3.23217773 32.92428589 C-3.24406727 30.34802373 -3.26116421 27.77178038 -3.28344727 25.19558716 C-3.31320798 21.55865827 -3.32334194 17.92219273 -3.328125 14.28515625 C-3.34043152 13.18699585 -3.35273804 12.08883545 -3.36541748 10.95739746 C-3.36245667 9.95059937 -3.35949585 8.94380127 -3.35644531 7.90649414 C-3.36009094 7.0272377 -3.36373657 6.14798126 -3.36749268 5.24208069 C-2.92749205 2.55762745 -2.0825022 1.68173815 0 0 Z " fill="#D68E54" transform="translate(66,24)"/>
<path d="M0 0 C0.12541527 25.35510817 -0.0921491 50.65985322 -1 76 C-1.33 76 -1.66 76 -2 76 C-2.33 52.57 -2.66 29.14 -3 5 C-3.66 5.66 -4.32 6.32 -5 7 C-7.125 6.625 -7.125 6.625 -9 6 C-7.8803014 4.99406757 -6.7540588 3.9954151 -5.625 3 C-4.68527344 2.1646875 -4.68527344 2.1646875 -3.7265625 1.3125 C-2 0 -2 0 0 0 Z " fill="#5BA1CE" transform="translate(63,28)"/>
<path d="M0 0 C0.66 0 1.32 0 2 0 C4.07434732 5.11236781 4.24424065 9.46330893 4.125 14.875 C4.11597656 15.65875 4.10695313 16.4425 4.09765625 17.25 C4.07428063 19.16680055 4.03841653 21.08344191 4 23 C1.69 23 -0.62 23 -3 23 C-4.54897985 19.9020403 -3.83239539 16.73783448 -3.5625 13.375 C-3.51029297 12.66859375 -3.45808594 11.9621875 -3.40429688 11.234375 C-3.27458793 9.48920013 -3.13795046 7.74454275 -3 6 C-2.01 6 -1.02 6 0 6 C0 4.02 0 2.04 0 0 Z " fill="#333261" transform="translate(58,161)"/>
<path d="M0 0 C2.04470249 1.66736408 2.92566921 2.52497566 3.34057617 5.17651367 C3.32486572 5.99869385 3.30915527 6.82087402 3.29296875 7.66796875 C3.28330078 8.56064453 3.27363281 9.45332031 3.26367188 10.37304688 C3.23853516 11.30181641 3.21339844 12.23058594 3.1875 13.1875 C3.17396484 14.12787109 3.16042969 15.06824219 3.14648438 16.03710938 C3.11113096 18.35865038 3.06178674 20.67903653 3 23 C1.02 23 -0.96 23 -3 23 C-3.08733513 19.91684615 -3.14050127 16.83401173 -3.1875 13.75 C-3.21263672 12.87730469 -3.23777344 12.00460938 -3.26367188 11.10546875 C-3.33834499 4.58401668 -3.33834499 4.58401668 -1.48828125 1.390625 C-0.99714844 0.93171875 -0.50601563 0.4728125 0 0 Z " fill="#EC4487" transform="translate(46,102)"/>
<path d="M0 0 C0.66 0 1.32 0 2 0 C3.13017896 17.67895497 3.12186718 35.33207652 3.06866455 53.03704834 C3.05825473 56.87951086 3.05382994 60.72198043 3.04882812 64.56445312 C3.03824795 72.04298736 3.02128485 79.52148773 3 87 C2.67 87 2.34 87 2 87 C1.98969254 86.22547989 1.97938507 85.45095978 1.96876526 84.65296936 C1.87095703 77.36871079 1.76846689 70.08454054 1.66066074 62.80042362 C1.60539769 59.05521202 1.55197245 55.30999266 1.50268555 51.56469727 C1.45509165 47.95311414 1.40275094 44.34162868 1.34705925 40.73016167 C1.32661306 39.34942481 1.30790378 37.96866114 1.29092598 36.58787727 C1.2669322 34.66016686 1.23629736 32.73254251 1.20532227 30.80493164 C1.18200584 29.15612755 1.18200584 29.15612755 1.15821838 27.47401428 C1.27711808 25.05693927 1.27711808 25.05693927 0 24 C-0.08669432 22.5112814 -0.10703494 21.018555 -0.09765625 19.52734375 C-0.09443359 18.62822266 -0.09121094 17.72910156 -0.08789062 16.80273438 C-0.07951172 15.85720703 -0.07113281 14.91167969 -0.0625 13.9375 C-0.05798828 12.98810547 -0.05347656 12.03871094 -0.04882812 11.06054688 C-0.0370011 8.70696935 -0.02052025 6.35351523 0 4 C-0.66 4 -1.32 4 -2 4 C-1.34 2.68 -0.68 1.36 0 0 Z " fill="#BA5DA1" transform="translate(47,39)"/>
<path d="M0 0 C0.66 0.33 1.32 0.66 2 1 C1.67657623 1.48780945 1.35315247 1.9756189 1.01992798 2.47821045 C-0.42805765 6.05837995 -0.30844213 9.54428591 -0.31884766 13.34863281 C-0.32889328 14.18802399 -0.3389389 15.02741516 -0.34928894 15.89224243 C-0.3801423 18.66252975 -0.39716206 21.43272033 -0.4140625 24.203125 C-0.43277241 26.1255578 -0.45234569 28.04798237 -0.4727478 29.97039795 C-0.52409364 35.02721305 -0.56370629 40.08405479 -0.60089111 45.14099121 C-0.64091535 50.30239463 -0.69201491 55.46368702 -0.7421875 60.625 C-0.83897584 70.74992204 -0.92337138 80.87490673 -1 91 C-1.33 91 -1.66 91 -2 91 C-2.13215496 82.72283947 -2.26264531 74.44565491 -2.39115143 66.168437 C-2.45090518 62.32280911 -2.51118044 58.47719102 -2.57275391 54.6315918 C-2.71073261 45.9947484 -2.83893587 37.35787324 -2.95019531 28.72064209 C-2.98135979 26.39251066 -3.01539743 24.06441391 -3.05371094 21.73638916 C-3.09748606 19.04952381 -3.12921599 16.36285775 -3.15625 13.67578125 C-3.17854675 12.57607246 -3.17854675 12.57607246 -3.20129395 11.45414734 C-3.22397286 7.5203401 -2.78180797 4.5251864 -1 1 C-0.67 0.67 -0.34 0.34 0 0 Z " fill="#7C91D8" transform="translate(52,35)"/>
<path d="M0 0 C1.67542976 0.28604898 3.34385343 0.61781233 5 1 C0.8498395 4.4828798 -3.5444914 7.37988168 -8.125 10.25 C-9.19814453 10.93835938 -9.19814453 10.93835938 -10.29296875 11.640625 C-11.32744141 12.2903125 -11.32744141 12.2903125 -12.3828125 12.953125 C-13.31697998 13.54335449 -13.31697998 13.54335449 -14.27001953 14.14550781 C-16 15 -16 15 -19 15 C-19 16.98 -19 18.96 -19 21 C-19.66 20.67 -20.32 20.34 -21 20 C-20.49155828 15.84772592 -19.99282723 13.84484952 -16.74609375 11.08203125 C-14.9887124 9.88230512 -13.21023433 8.71278394 -11.41015625 7.578125 C-9.28895312 6.18920107 -7.76352517 4.78908351 -6 3 C-4.35008418 2.29289322 -2.68437744 1.62056011 -1 1 C-0.67 0.67 -0.34 0.34 0 0 Z " fill="#807E94" transform="translate(77,146)"/>
<path d="M0 0 C2.38833147 0.14860808 4.77990874 0.24778427 7.171875 0.31640625 C7.8542926 0.33718735 8.53671021 0.35796844 9.23980713 0.37937927 C11.40977356 0.44452052 13.57985624 0.50359404 15.75 0.5625 C17.22527221 0.60571897 18.70053287 0.64933432 20.17578125 0.69335938 C23.78373166 0.80016518 27.39181133 0.90153153 31 1 C31 1.66 31 2.32 31 3 C19.12 3 7.24 3 -5 3 C-5 2.34 -5 1.68 -5 1 C-5.66 0.67 -6.32 0.34 -7 0 C-3.6625415 -1.11248617 -3.22655063 -0.83102843 0 0 Z " fill="#D1D5E0" transform="translate(42,129)"/>
<path d="M0 0 C0.33 0 0.66 0 1 0 C1 8.25 1 16.5 1 25 C-1.31 25.66 -3.62 26.32 -6 27 C-6.79953138 23.71303767 -7.09658936 22.28976808 -6 19 C-5.67 20.65 -5.34 22.3 -5 24 C-3.68 24.33 -2.36 24.66 -1 25 C-1.00523682 24.31373535 -1.01047363 23.6274707 -1.01586914 22.92041016 C-1.03660956 19.82194936 -1.04965076 16.72350314 -1.0625 13.625 C-1.07087891 12.54476562 -1.07925781 11.46453125 -1.08789062 10.3515625 C-1.09111328 9.3203125 -1.09433594 8.2890625 -1.09765625 7.2265625 C-1.10289307 6.27346191 -1.10812988 5.32036133 -1.11352539 4.33837891 C-1 2 -1 2 0 0 Z " fill="#EE8FC1" transform="translate(40,101)"/>
<path d="M0 0 C0.33 0 0.66 0 1 0 C1 15.18 1 30.36 1 46 C-2.96 46 -6.92 46 -11 46 C-11 45.67 -11 45.34 -11 45 C-7.7 45 -4.4 45 -1 45 C-1 43.87980469 -1 42.75960937 -1 41.60546875 C-1 25.625 -1 25.625 -0.78125 20.01953125 C-0.71357422 18.27446289 -0.71357422 18.27446289 -0.64453125 16.49414062 C-0.59683594 15.27919922 -0.54914063 14.06425781 -0.5 12.8125 C-0.45230469 11.58595703 -0.40460938 10.35941406 -0.35546875 9.09570312 C-0.23749515 6.06378159 -0.1189842 3.03188202 0 0 Z " fill="#E88234" transform="translate(76,80)"/>
<path d="M0 0 C1.32 0 2.64 0 4 0 C4 0.66 4 1.32 4 2 C4.66 2.33 5.32 2.66 6 3 C6 3.33 6 3.66 6 4 C8.64 4 11.28 4 14 4 C14 6.31 14 8.62 14 11 C13.34 10.67 12.68 10.34 12 10 C12.33 8.35 12.66 6.7 13 5 C11.02 5 9.04 5 7 5 C7.33 6.98 7.66 8.96 8 11 C6.68 10.34 5.36 9.68 4 9 C4 7.68 4 6.36 4 5 C2.02 5 0.04 5 -2 5 C-2 6.98 -2 8.96 -2 11 C-2.33 11 -2.66 11 -3 11 C-3 8.69 -3 6.38 -3 4 C-1.68 4 -0.36 4 1 4 C0.67 2.68 0.34 1.36 0 0 Z " fill="#8788A7" transform="translate(94,64)"/>
<path d="M0 0 C0 13.53 0 27.06 0 41 C-0.33 41 -0.66 41 -1 41 C-1.33 28.79 -1.66 16.58 -2 4 C-2.99 4.99 -3.98 5.98 -5 7 C-7.1875 6.6875 -7.1875 6.6875 -9 6 C-7.8803014 4.99406757 -6.7540588 3.9954151 -5.625 3 C-4.68527344 2.1646875 -4.68527344 2.1646875 -3.7265625 1.3125 C-2 0 -2 0 0 0 Z " fill="#9D9E92" transform="translate(63,28)"/>
<path d="M0 0 C0.98396507 0.03541649 0.98396507 0.03541649 1.98780823 0.07154846 C4.0559437 0.14731751 6.12361929 0.23170638 8.19140625 0.31640625 C9.60479619 0.3697142 11.01820769 0.42245378 12.43164062 0.47460938 C15.8726694 0.60281239 19.31334156 0.73874098 22.75390625 0.87890625 C23.74390625 3.18890625 24.73390625 5.49890625 25.75390625 7.87890625 C24.76390625 7.87890625 23.77390625 7.87890625 22.75390625 7.87890625 C22.75390625 7.21890625 22.75390625 6.55890625 22.75390625 5.87890625 C21.76390625 5.54890625 20.77390625 5.21890625 19.75390625 4.87890625 C19.75390625 3.88890625 19.75390625 2.89890625 19.75390625 1.87890625 C8.53390625 1.87890625 -2.68609375 1.87890625 -14.24609375 1.87890625 C-14.24609375 1.54890625 -14.24609375 1.21890625 -14.24609375 0.87890625 C-9.40555931 0.07260298 -4.90044544 -0.18928759 0 0 Z " fill="#363645" transform="translate(53.24609375,128.12109375)"/>
<path d="M0 0 C0.66 0 1.32 0 2 0 C2 8.25 2 16.5 2 25 C1.34 24.67 0.68 24.34 0 24 C0 17.4 0 10.8 0 4 C-0.66 4 -1.32 4 -2 4 C-1.34 2.68 -0.68 1.36 0 0 Z " fill="#D55E90" transform="translate(47,39)"/>
<path d="M0 0 C0.33 0 0.66 0 1 0 C1 4.29 1 8.58 1 13 C4.16666667 11.16666667 4.16666667 11.16666667 6 8 C5.67 10.31 5.34 12.62 5 15 C5.66 15 6.32 15 7 15 C7 15.66 7 16.32 7 17 C4.69 17 2.38 17 0 17 C-1.54897985 13.9020403 -0.83239539 10.73783448 -0.5625 7.375 C-0.51029297 6.66859375 -0.45808594 5.9621875 -0.40429688 5.234375 C-0.27458793 3.48920013 -0.13795046 1.74454275 0 0 Z " fill="#595876" transform="translate(55,167)"/>
<path d="M0 0 C0.66 0.33 1.32 0.66 2 1 C1.84152588 1.56170898 1.68305176 2.12341797 1.51977539 2.70214844 C0.97811638 5.09674429 0.79358526 7.31438553 0.68359375 9.765625 C0.64169922 10.65507813 0.59980469 11.54453125 0.55664062 12.4609375 C0.49766602 13.84152344 0.49766602 13.84152344 0.4375 15.25 C0.39431641 16.18585937 0.35113281 17.12171875 0.30664062 18.0859375 C0.2008195 20.39048641 0.09873443 22.69513839 0 25 C-0.33 25 -0.66 25 -1 25 C-1 18.73 -1 12.46 -1 6 C-1.66 6 -2.32 6 -3 6 C-1.125 1.125 -1.125 1.125 0 0 Z " fill="#DC6493" transform="translate(37,47)"/>
<path d="M0 0 C0.66 0.33 1.32 0.66 2 1 C1.525625 2.175625 1.05125 3.35125 0.5625 4.5625 C-1.68755971 11.18531727 -1.73518111 18.06905055 -2 25 C-2.33 25 -2.66 25 -3 25 C-3.05410136 21.93726169 -3.09372225 18.87548548 -3.125 15.8125 C-3.14175781 14.94818359 -3.15851562 14.08386719 -3.17578125 13.19335938 C-3.21024062 8.6964114 -3.1966048 5.0596511 -1 1 C-0.67 0.67 -0.34 0.34 0 0 Z " fill="#F6CEF3" transform="translate(52,35)"/>
<path d="M0 0 C0.66 0.33 1.32 0.66 2 1 C1.34 2.32 0.68 3.64 0 5 C-1.32 5 -2.64 5 -4 5 C-3.67 6.32 -3.34 7.64 -3 9 C-6 9 -6 9 -9 7 C-6.03 4.69 -3.06 2.38 0 0 Z " fill="#ECA979" transform="translate(77,16)"/>
<path d="M0 0 C0.99 0 1.98 0 3 0 C3 3.96 3 7.92 3 12 C2.01 11.67 1.02 11.34 0 11 C0 7.37 0 3.74 0 0 Z " fill="#696889" transform="translate(34,130)"/>
<path d="M0 0 C0.66 0 1.32 0 2 0 C2 3.3 2 6.6 2 10 C0.68 10.33 -0.64 10.66 -2 11 C-1.34 7.37 -0.68 3.74 0 0 Z " fill="#46455B" transform="translate(81,136)"/>
<path d="M0 0 C1.98 0 3.96 0 6 0 C6.33 0.99 6.66 1.98 7 3 C6.34 3 5.68 3 5 3 C4.67 3.66 4.34 4.32 4 5 C2.68 4.34 1.36 3.68 0 3 C0 2.01 0 1.02 0 0 Z " fill="#23235A" transform="translate(106,42)"/>
<path d="M0 0 C0.33 0 0.66 0 1 0 C1 2.64 1 5.28 1 8 C2.32 8.33 3.64 8.66 5 9 C5 9.66 5 10.32 5 11 C3.125 10.75 3.125 10.75 1 10 C-0.44147299 7.72399002 -1.14445422 5.56663734 -2 3 C-1.34 3 -0.68 3 0 3 C0 2.01 0 1.02 0 0 Z " fill="#232453" transform="translate(90,57)"/>
<path d="M0 0 C0.66 0.33 1.32 0.66 2 1 C0.35 2.98 -1.3 4.96 -3 7 C-4.32 6.67 -5.64 6.34 -7 6 C-4.69 4.02 -2.38 2.04 0 0 Z " fill="#99CCE4" transform="translate(61,28)"/>
<path d="M0 0 C0.66 0 1.32 0 2 0 C2.99 2.31 3.98 4.62 5 7 C4.01 7 3.02 7 2 7 C2 6.34 2 5.68 2 5 C1.01 4.67 0.02 4.34 -1 4 C-0.67 2.68 -0.34 1.36 0 0 Z " fill="#48486E" transform="translate(74,129)"/>
<path d="M0 0 C0.99 0.495 0.99 0.495 2 1 C2 2.32 2 3.64 2 5 C3.65 5.33 5.3 5.66 7 6 C3.25 8 3.25 8 1 8 C0.40267181 5.23735711 0 2.83967231 0 0 Z " fill="#E6B0C8" transform="translate(33,120)"/>
<path d="M0 0 C0 0.66 0 1.32 0 2 C-2.31 1.67 -4.62 1.34 -7 1 C-7 0.34 -7 -0.32 -7 -1 C-3.51418144 -2.2020064 -3.32007656 -2.21338437 0 0 Z M-5 2 C-3 3 -3 3 -3 3 Z " fill="#54537B" transform="translate(101,75)"/>
<path d="M0 0 C0.99 0 1.98 0 3 0 C3.33 0.99 3.66 1.98 4 3 C2.02 3.66 0.04 4.32 -2 5 C-1.34 3.35 -0.68 1.7 0 0 Z " fill="#413E6D" transform="translate(101,64)"/>
<path d="M0 0 C0.66 0.33 1.32 0.66 2 1 C1.01 3.97 0.02 6.94 -1 10 C-1.33 10 -1.66 10 -2 10 C-2.1953125 3.9453125 -2.1953125 3.9453125 -2 2 C-1.34 1.34 -0.68 0.68 0 0 Z " fill="#A1D0EF" transform="translate(52,35)"/>
<path d="" fill="#FFFFFF" transform="translate(0,0)"/>
</svg>
